<?xml version="1.0" encoding="utf-8"?>
<!-- Generator: Adobe Illustrator 23.0.3, SVG Export Plug-In . SVG Version: 6.00 Build 0)  -->
<svg version="1.1" id="Layer_1" xmlns="http://www.w3.org/2000/svg" xmlns:xlink="http://www.w3.org/1999/xlink" x="0px" y="0px"
	 viewBox="0 0 100 13" style="enable-background:new 0 0 100 13;" xml:space="preserve">
<style type="text/css">
	.st0{fill:#FFFFFF;stroke:#4888C8;stroke-width:0.75;stroke-miterlimit:10;}
	.st1{fill:#4888C8;}
	.st2{font-family:'AkzidenzGroteskBE-Bold';}
	.st3{font-size:6.7711px;}
	.st4{font-size:10px;}
	.st5{font-family:'HelveticaNeue';}
	.st6{font-size:1px;}
	.st7{font-family:'HelveticaNeue-Medium';}
</style>
<path d="M0,0c0.3,1.1,1.3,2.3,2.6,2.6h4.1l0.2,0.1V13h2.5V2.7l0.2-0.1h4.1C15.1,2.2,16,1.1,16.3,0H0z M77.8,13
	c1.3-0.5,2-1.5,2.2-2.6H68.7V-0.1h-2.5v13h11.6L77.8,13z M47.3,2.6h9C57.6,2.2,58.8,1.2,59,0H44.8v7.7h11.6v2.7h-9.1
	c-1.4,0.4-2.6,1.4-3.2,2.6H59V5.2H47.3V2.6z M85.4,5.2V13H88V7.8h9.1V13h2.6V5.2 M25.2,2.6h9.7c1.3-0.3,2.4-1.5,2.6-2.6h-15
	C22.9,1.2,23.9,2.3,25.2,2.6 M25.2,7.8h9.7c1.3-0.3,2.4-1.5,2.6-2.6h-15C22.9,6.3,23.9,7.5,25.2,7.8 M25.2,13h9.7
	c1.3-0.3,2.4-1.5,2.6-2.6h-15C22.9,11.6,23.9,12.8,25.2,13 M87.7,2.6h9.7c1.3-0.3,2.4-1.5,2.6-2.6H85C85.3,1.2,86.3,2.4,87.7,2.6"/>
<rect class="st0" width="99.7" height="13"/>
<rect y="-0.1" class="st0" width="13" height="13"/>
<text transform="matrix(1 0 0 1 2.4728 8.8495)" class="st1 st2 st3">B</text>
<text transform="matrix(1 0 0 1 7.2728 8.8495)" class="st1 st2 st3">t</text>
<text transform="matrix(1 0 0 1 14.6621 10.1232)" class="st1 st2 st4">BLOCTHEORYM</text>
<text transform="matrix(1 0 0 1 3.3042 11.0558)" class="st1 st5 st6">BlocTheorym</text>
<text transform="matrix(1 0 0 1 4.7343 12.1366)" class="st1 st5 st6">413.9</text>
<text transform="matrix(1 0 0 1 1.0348 1.8031)" class="st1 st7 st6">193</text>
</svg>
