<svg id="Layer_1" data-name="Layer 1" xmlns="http://www.w3.org/2000/svg" viewBox="0 0 100.45 13.85"><defs><style>.cls-1{fill:#fff;}.cls-1,.cls-2{stroke:#231f20;stroke-miterlimit:10;stroke-width:0.75px;}.cls-2{fill:none;}.cls-10,.cls-11,.cls-3,.cls-4{isolation:isolate;}.cls-3{font-size:6.77px;}.cls-3,.cls-4{font-family:AkzidenzGroteskBE-Bold, Berthold Akzidenz Grotesk;font-weight:700;}.cls-4{font-size:10px;letter-spacing:0.09em;}.cls-5{letter-spacing:0.03em;}.cls-6{letter-spacing:0.05em;}.cls-7{letter-spacing:0.03em;}.cls-8{letter-spacing:0.07em;}.cls-9{letter-spacing:0.01em;}.cls-10,.cls-11{font-size:1px;}.cls-10{font-family:HelveticaNeue, Helvetica Neue;}.cls-11{font-family:HelveticaNeue-Medium, Helvetica Neue;font-weight:500;}</style></defs><title>bloctheorym-logo3</title><path d="M0,0A3.78,3.78,0,0,0,2.6,2.6H6.7l.2.1V13H9.4V2.7l.2-.1h4.1A3.77,3.77,0,0,0,16.3,0ZM77.8,13A3.37,3.37,0,0,0,80,10.4H68.7V-.1H66.2v13H77.8ZM47.3,2.6h9A3.74,3.74,0,0,0,59,0H44.8V7.7H56.4v2.7H47.3A5.24,5.24,0,0,0,44.1,13H59V5.2H47.3ZM85.4,5.2V13H88V7.8h9.1V13h2.6V5.2M25.2,2.6h9.7A3.6,3.6,0,0,0,37.5,0h-15a3.92,3.92,0,0,0,2.7,2.6m0,5.2h9.7a3.6,3.6,0,0,0,2.6-2.6h-15a4.12,4.12,0,0,0,2.7,2.6m0,5.2h9.7a3.6,3.6,0,0,0,2.6-2.6h-15A3.73,3.73,0,0,0,25.2,13M87.7,2.6h9.7A3.6,3.6,0,0,0,100,0H85a3.43,3.43,0,0,0,2.7,2.6" transform="translate(0.38 0.48)"/><rect class="cls-1" x="0.38" y="0.48" width="99.7" height="13"/><rect class="cls-2" x="0.38" y="0.38" width="13" height="13"/><text class="cls-3" transform="translate(2.85 9.32)">B</text><text class="cls-3" transform="translate(7.65 9.32)">t</text><text class="cls-4" transform="translate(15.04 10.6)">B<tspan class="cls-5" x="8" y="0">L</tspan><tspan class="cls-6" x="13.72" y="0">O</tspan><tspan class="cls-7" x="22.14" y="0">C</tspan><tspan class="cls-6" x="29.32" y="0">T</tspan><tspan x="35.44" y="0">H</tspan><tspan class="cls-8" x="43.86" y="0">E</tspan><tspan class="cls-6" x="51.03" y="0">O</tspan><tspan class="cls-9" x="59.45" y="0">R</tspan><tspan class="cls-6" x="66.62" y="0">YM</tspan></text><text class="cls-10" transform="translate(3.68 11.53)">BlocTheorym</text><text class="cls-10" transform="translate(5.11 12.61)">413.9</text><text class="cls-11" transform="translate(1.41 2.28)">193</text></svg>